<svg width="24" height="24" viewBox="0 0 43 30" fill="none" xmlns="http://www.w3.org/2000/svg">
    <path fill-rule="evenodd" clip-rule="evenodd" d="M5.22727 0.378723C2.34033 0.378723 0 2.71905 0 5.606V24.7066C0 27.5935 2.34033 29.9339 5.22727 29.9339H38.0071C40.894 29.9339 43.2344 27.5935 43.2344 24.7066V5.606C43.2344 2.71905 40.894 0.378723 38.0071 0.378723H5.22727ZM2.09091 5.606C2.09091 3.87383 3.49511 2.46963 5.22727 2.46963H38.0071C39.7393 2.46963 41.1435 3.87383 41.1435 5.606V24.7066C41.1435 26.4388 39.7393 27.843 38.0071 27.843H5.22727C3.49511 27.843 2.09091 26.4388 2.09091 24.7066V5.606Z" fill="#7F7F7F"></path>
    <rect x="17" y="7" width="9" height="3" fill="#7F7F7F"></rect>
    <rect x="17" y="20" width="9" height="3" fill="#7F7F7F"></rect>
</svg>