<svg width="20" height="20" viewBox="0 0 24 24" fill="none" xmlns="http://www.w3.org/2000/svg">
<path d="M7.11511 5.70498C6.72575 5.31562 6.09447 5.31562 5.70511 5.70498C5.31575 6.09435 5.31575 6.72562 5.70511 7.11498L10.5901 12L5.70511 16.885C5.31575 17.2743 5.31575 17.9056 5.70511 18.295C6.09447 18.6843 6.72575 18.6843 7.11511 18.295L12.0001 13.41L16.8851 18.295C17.2745 18.6843 17.9057 18.6843 18.2951 18.295C18.6845 17.9056 18.6845 17.2743 18.2951 16.885L13.4101 12L18.2951 7.11498C18.6845 6.72562 18.6845 6.09435 18.2951 5.70498C17.9057 5.31562 17.2745 5.31562 16.8851 5.70498L12.0001 10.59L7.11511 5.70498Z" fill="currentColor"/>
</svg>
