<svg width="24" height="24" viewBox="0 0 44 30" fill="none" xmlns="http://www.w3.org/2000/svg">
    <path fill-rule="evenodd" clip-rule="evenodd" d="M17.8182 17.8182C17.8182 18.5428 18.1934 19.2158 18.8098 19.5968C19.4263 19.9778 20.196 20.0124 20.8442 19.6883L27.1169 16.552C27.8253 16.1978 28.2727 15.4738 28.2727 14.6818C28.2727 13.8898 27.8253 13.1658 27.1169 12.8116L20.8442 9.67528C20.196 9.3512 19.4263 9.38583 18.8098 9.76681C18.1934 10.1478 17.8182 10.8208 17.8182 11.5454V17.8182ZM26.1818 14.6818L19.9091 17.8182V11.5454L26.1818 14.6818Z" fill="#7F7F7F"></path>
    <path fill-rule="evenodd" clip-rule="evenodd" d="M5.61015 0.378784C2.7232 0.378784 0.382874 2.71911 0.382874 5.60606V24.7067C0.382874 27.5936 2.7232 29.9339 5.61015 29.9339H38.39C41.2769 29.9339 43.6172 27.5936 43.6172 24.7067V5.60606C43.6172 2.71912 41.2769 0.378784 38.39 0.378784H5.61015ZM2.47378 5.60606C2.47378 3.87389 3.87798 2.46969 5.61015 2.46969H38.39C40.1221 2.46969 41.5263 3.87389 41.5263 5.60606V24.7067C41.5263 26.4388 40.1221 27.843 38.39 27.843H5.61015C3.87798 27.843 2.47378 26.4388 2.47378 24.7067V5.60606Z" fill="#7F7F7F"></path>
</svg>