<svg width="24" height="24" viewBox="0 0 44 33" fill="none" xmlns="http://www.w3.org/2000/svg">
    <path fill-rule="evenodd" clip-rule="evenodd" d="M0 5.60606C0 2.71911 2.34033 0.378784 5.22727 0.378784H38.0071C40.894 0.378784 43.2344 2.71912 43.2344 5.60606V20.7067C43.2344 23.5936 40.894 25.9339 38.0071 25.9339H23.3317C23.3328 25.9558 23.3333 25.9778 23.3333 26V29.6667H27C27.7364 29.6667 28.3333 30.2636 28.3333 31C28.3333 31.7364 27.7364 32.3333 27 32.3333H22H17C16.2636 32.3333 15.6667 31.7364 15.6667 31C15.6667 30.2636 16.2636 29.6667 17 29.6667H20.6667V26C20.6667 25.9778 20.6672 25.9558 20.6683 25.9339H5.22727C2.34033 25.9339 0 23.5936 0 20.7067V5.60606ZM5.22727 2.46969C3.49511 2.46969 2.09091 3.87389 2.09091 5.60606V20.7067C2.09091 22.4388 3.49511 23.843 5.22727 23.843H38.0071C39.7393 23.843 41.1435 22.4388 41.1435 20.7067V5.60606C41.1435 3.87389 39.7393 2.46969 38.0071 2.46969H5.22727Z" fill="#7F7F7F"></path>
</svg>