<svg width="24" height="24" viewBox="0 0 24 24" fill="none" xmlns="http://www.w3.org/2000/svg">
<path fill-rule="evenodd" clip-rule="evenodd" d="M15 3H9C5.68629 3 3 5.68629 3 9V15C3 18.3137 5.68629 21 9 21H15C18.3137 21 21 18.3137 21 15V9C21 5.68629 18.3137 3 15 3ZM9 1C4.58172 1 1 4.58172 1 9V15C1 19.4183 4.58172 23 9 23H15C19.4183 23 23 19.4183 23 15V9C23 4.58172 19.4183 1 15 1H9Z" fill="black"/>
<path d="M12 7V17" stroke="black" stroke-width="2" stroke-linecap="round"/>
<path d="M7 12L17 12" stroke="black" stroke-width="2" stroke-linecap="round"/>
</svg>
